<svg xmlns="http://www.w3.org/2000/svg" viewBox="0 0 220 220" role="img" aria-label="QR code doacao">
  <rect width="220" height="220" fill="#fff"/>
  <rect x="10" y="10" width="54" height="54" fill="#000"/>
  <rect x="18" y="18" width="38" height="38" fill="#fff"/>
  <rect x="24" y="24" width="26" height="26" fill="#000"/>
  <rect x="156" y="10" width="54" height="54" fill="#000"/>
  <rect x="164" y="18" width="38" height="38" fill="#fff"/>
  <rect x="170" y="24" width="26" height="26" fill="#000"/>
  <rect x="10" y="156" width="54" height="54" fill="#000"/>
  <rect x="18" y="164" width="38" height="38" fill="#fff"/>
  <rect x="24" y="170" width="26" height="26" fill="#000"/>
  <rect x="82" y="82" width="10" height="10" fill="#000"/>
  <rect x="102" y="82" width="10" height="10" fill="#000"/>
  <rect x="122" y="82" width="10" height="10" fill="#000"/>
  <rect x="82" y="102" width="10" height="10" fill="#000"/>
  <rect x="102" y="102" width="10" height="10" fill="#000"/>
  <rect x="122" y="102" width="10" height="10" fill="#000"/>
  <rect x="82" y="122" width="10" height="10" fill="#000"/>
  <rect x="102" y="122" width="10" height="10" fill="#000"/>
  <rect x="122" y="122" width="10" height="10" fill="#000"/>
  <rect x="74" y="146" width="10" height="10" fill="#000"/>
  <rect x="94" y="146" width="10" height="10" fill="#000"/>
  <rect x="114" y="146" width="10" height="10" fill="#000"/>
  <rect x="134" y="146" width="10" height="10" fill="#000"/>
  <rect x="154" y="146" width="10" height="10" fill="#000"/>
  <rect x="74" y="166" width="10" height="10" fill="#000"/>
  <rect x="94" y="166" width="10" height="10" fill="#000"/>
  <rect x="114" y="166" width="10" height="10" fill="#000"/>
  <rect x="134" y="166" width="10" height="10" fill="#000"/>
  <rect x="154" y="166" width="10" height="10" fill="#000"/>
  <rect x="74" y="186" width="10" height="10" fill="#000"/>
  <rect x="94" y="186" width="10" height="10" fill="#000"/>
  <rect x="114" y="186" width="10" height="10" fill="#000"/>
  <rect x="134" y="186" width="10" height="10" fill="#000"/>
  <rect x="154" y="186" width="10" height="10" fill="#000"/>
</svg>
